M48
;DRILL file {KiCad 4.0.7} date 05/27/25 23:52:03
;FORMAT={-:-/ absolute / metric / decimal}
FMAT,2
METRIC,TZ
T1C0.400
T2C0.800
T3C0.900
T4C1.000
T5C1.100
T6C1.320
%
G90
G05
M71
T1
X110.44Y113.97
X124.001Y134.663
X131.58Y106.892
X161.124Y143.071
X162.486Y139.743
X166.456Y127.813
X170.513Y151.166
X173.289Y128.762
X214.789Y116.205
X217.771Y118.784
X218.485Y134.144
X218.7Y136.956
X219.882Y138.109
T2
X143.51Y124.54
X143.51Y129.54
X143.51Y133.43
X143.51Y138.43
X146.05Y107.95
X153.67Y127.
X153.67Y131.88
X156.21Y107.95
X161.29Y107.95
X161.29Y110.49
X161.29Y113.03
X161.29Y115.57
X161.29Y118.11
X161.29Y120.65
X161.29Y123.19
X161.29Y125.73
X161.29Y128.27
X161.29Y130.81
X161.29Y133.35
X161.29Y135.89
X161.29Y138.43
X161.29Y140.97
X168.91Y107.95
X168.91Y110.49
X168.91Y113.03
X168.91Y115.57
X168.91Y118.11
X168.91Y120.65
X168.91Y123.19
X168.91Y125.73
X168.91Y128.27
X168.91Y130.81
X168.91Y133.35
X168.91Y135.89
X168.91Y138.43
X168.91Y140.97
T3
X104.14Y106.68
X109.14Y106.68
X114.3Y106.68
X119.3Y106.68
X124.46Y106.68
X129.46Y106.68
T4
X102.87Y123.19
X102.87Y125.73
X102.87Y134.62
X102.87Y137.16
X102.87Y139.7
X102.87Y142.24
X102.87Y144.78
X102.87Y147.32
X121.92Y135.89
X121.92Y138.43
X121.92Y140.97
X121.92Y143.51
X121.92Y146.05
X121.92Y148.59
X185.42Y152.4
X220.98Y104.14
X220.98Y106.68
X220.98Y109.22
X220.98Y111.76
X220.98Y114.3
X220.98Y116.84
X220.98Y119.38
X220.98Y121.92
X220.98Y124.46
X220.98Y127.
X220.98Y129.54
X220.98Y132.08
X220.98Y134.62
X220.98Y137.16
X220.98Y139.7
X220.98Y142.24
X220.98Y144.78
X220.98Y147.32
X220.98Y149.86
X220.98Y152.4
T5
X80.01Y128.27
X82.55Y128.27
X85.09Y128.27
T6
X82.55Y105.49
X82.55Y110.49
T0
M30
