G04 #@! TF.FileFunction,Legend,Top*
%FSLAX46Y46*%
G04 Gerber Fmt 4.6, Leading zero omitted, Abs format (unit mm)*
G04 Created by KiCad (PCBNEW 4.0.7) date 05/27/25 23:51:34*
%MOMM*%
%LPD*%
G01*
G04 APERTURE LIST*
%ADD10C,0.100000*%
%ADD11C,0.300000*%
%ADD12C,0.120000*%
%ADD13C,0.150000*%
G04 APERTURE END LIST*
D10*
D11*
X147593815Y-91439558D02*
X146736695Y-91433347D01*
X147165256Y-91436453D02*
X147176125Y-89936492D01*
X147031719Y-90149738D01*
X146887829Y-90291556D01*
X146744459Y-90361948D01*
X148104671Y-89943221D02*
X149104645Y-89950467D01*
X148450936Y-91445770D01*
X150390325Y-89959784D02*
X149676058Y-89954608D01*
X149599455Y-90668357D01*
X149671400Y-90597449D01*
X149814771Y-90527057D01*
X150171904Y-90529645D01*
X150314240Y-90602107D01*
X150385150Y-90674051D01*
X150455541Y-90817422D01*
X150452953Y-91174555D01*
X150380491Y-91316891D01*
X150308547Y-91387801D01*
X150165176Y-91458192D01*
X149808042Y-91455604D01*
X149665707Y-91383142D01*
X149594797Y-91311198D01*
X151094758Y-91322067D02*
X151165666Y-91394012D01*
X151093722Y-91464920D01*
X151022813Y-91392976D01*
X151094758Y-91322067D01*
X151093722Y-91464920D01*
X151746397Y-90112472D02*
X151818341Y-90041562D01*
X151961712Y-89971171D01*
X152318846Y-89973758D01*
X152461182Y-90046221D01*
X152532091Y-90118165D01*
X152602482Y-90261536D01*
X152601447Y-90404390D01*
X152528468Y-90618152D01*
X151665136Y-91469061D01*
X152593683Y-91475789D01*
X153890233Y-89985145D02*
X153604526Y-89983075D01*
X153461155Y-90053467D01*
X153389211Y-90124376D01*
X153244805Y-90337621D01*
X153171307Y-90622811D01*
X153167166Y-91194224D01*
X153237558Y-91337594D01*
X153308467Y-91409539D01*
X153450804Y-91482000D01*
X153736510Y-91484071D01*
X153879881Y-91413680D01*
X153951826Y-91342770D01*
X154024287Y-91200435D01*
X154026875Y-90843301D01*
X153956484Y-90699930D01*
X153885574Y-90627986D01*
X153743239Y-90555524D01*
X153457532Y-90553454D01*
X153314160Y-90623846D01*
X153242217Y-90694754D01*
X153169754Y-90837090D01*
X155390193Y-89996015D02*
X154675926Y-89990839D01*
X154599323Y-90704588D01*
X154671268Y-90633680D01*
X154814639Y-90563288D01*
X155171772Y-90565876D01*
X155314108Y-90638338D01*
X155385017Y-90710282D01*
X155455408Y-90853653D01*
X155452820Y-91210786D01*
X155380359Y-91353122D01*
X155308414Y-91424032D01*
X155165044Y-91494422D01*
X154807910Y-91491835D01*
X154665574Y-91419373D01*
X154594665Y-91347429D01*
X157236417Y-91509432D02*
X157243663Y-90509459D01*
X157242628Y-90652313D02*
X157314572Y-90581403D01*
X157457944Y-90511011D01*
X157672223Y-90512564D01*
X157814559Y-90585026D01*
X157884951Y-90728397D01*
X157879257Y-91514091D01*
X157884951Y-90728397D02*
X157957413Y-90586062D01*
X158100784Y-90515670D01*
X158315063Y-90517222D01*
X158457400Y-90589685D01*
X158527791Y-90733056D01*
X158522097Y-91518749D01*
X159236365Y-91523925D02*
X159243611Y-90523951D01*
X159242576Y-90666805D02*
X159314519Y-90595896D01*
X159457891Y-90525504D01*
X159672171Y-90527057D01*
X159814506Y-90599519D01*
X159884898Y-90742890D01*
X159879205Y-91528583D01*
X159884898Y-90742890D02*
X159957361Y-90600554D01*
X160100731Y-90530162D01*
X160315011Y-90531715D01*
X160457347Y-90604177D01*
X160527738Y-90747548D01*
X160522045Y-91533241D01*
X66040000Y-90170000D02*
X241300000Y-91440000D01*
X66040000Y-90170000D02*
X66040000Y-90170000D01*
X241300000Y-91440000D02*
X241300000Y-91440000D01*
X241300000Y-91440000D02*
X240169277Y-92018242D01*
X241300000Y-91440000D02*
X240177775Y-90845432D01*
X66040000Y-90170000D02*
X67162225Y-90764568D01*
X66040000Y-90170000D02*
X67170723Y-89591758D01*
X244661429Y-121500001D02*
X244661429Y-121214287D01*
X244590000Y-121071430D01*
X244518571Y-121000001D01*
X244304286Y-120857144D01*
X244018571Y-120785715D01*
X243447143Y-120785715D01*
X243304286Y-120857144D01*
X243232857Y-120928572D01*
X243161429Y-121071430D01*
X243161429Y-121357144D01*
X243232857Y-121500001D01*
X243304286Y-121571430D01*
X243447143Y-121642858D01*
X243804286Y-121642858D01*
X243947143Y-121571430D01*
X244018571Y-121500001D01*
X244090000Y-121357144D01*
X244090000Y-121071430D01*
X244018571Y-120928572D01*
X243947143Y-120857144D01*
X243804286Y-120785715D01*
X244661429Y-122928572D02*
X244661429Y-122642858D01*
X244590000Y-122500001D01*
X244518571Y-122428572D01*
X244304286Y-122285715D01*
X244018571Y-122214286D01*
X243447143Y-122214286D01*
X243304286Y-122285715D01*
X243232857Y-122357143D01*
X243161429Y-122500001D01*
X243161429Y-122785715D01*
X243232857Y-122928572D01*
X243304286Y-123000001D01*
X243447143Y-123071429D01*
X243804286Y-123071429D01*
X243947143Y-123000001D01*
X244018571Y-122928572D01*
X244090000Y-122785715D01*
X244090000Y-122500001D01*
X244018571Y-122357143D01*
X243947143Y-122285715D01*
X243804286Y-122214286D01*
X243304286Y-123714286D02*
X243232857Y-123785714D01*
X243161429Y-123714286D01*
X243232857Y-123642857D01*
X243304286Y-123714286D01*
X243161429Y-123714286D01*
X244661429Y-124714286D02*
X244661429Y-124857143D01*
X244590000Y-125000000D01*
X244518571Y-125071429D01*
X244375714Y-125142858D01*
X244090000Y-125214286D01*
X243732857Y-125214286D01*
X243447143Y-125142858D01*
X243304286Y-125071429D01*
X243232857Y-125000000D01*
X243161429Y-124857143D01*
X243161429Y-124714286D01*
X243232857Y-124571429D01*
X243304286Y-124500000D01*
X243447143Y-124428572D01*
X243732857Y-124357143D01*
X244090000Y-124357143D01*
X244375714Y-124428572D01*
X244518571Y-124500000D01*
X244590000Y-124571429D01*
X244661429Y-124714286D01*
X244161429Y-126500000D02*
X243161429Y-126500000D01*
X244732857Y-126142857D02*
X243661429Y-125785714D01*
X243661429Y-126714286D01*
X244661429Y-127571428D02*
X244661429Y-127714285D01*
X244590000Y-127857142D01*
X244518571Y-127928571D01*
X244375714Y-128000000D01*
X244090000Y-128071428D01*
X243732857Y-128071428D01*
X243447143Y-128000000D01*
X243304286Y-127928571D01*
X243232857Y-127857142D01*
X243161429Y-127714285D01*
X243161429Y-127571428D01*
X243232857Y-127428571D01*
X243304286Y-127357142D01*
X243447143Y-127285714D01*
X243732857Y-127214285D01*
X244090000Y-127214285D01*
X244375714Y-127285714D01*
X244518571Y-127357142D01*
X244590000Y-127428571D01*
X244661429Y-127571428D01*
X243161429Y-129857142D02*
X244161429Y-129857142D01*
X244018571Y-129857142D02*
X244090000Y-129928570D01*
X244161429Y-130071428D01*
X244161429Y-130285713D01*
X244090000Y-130428570D01*
X243947143Y-130499999D01*
X243161429Y-130499999D01*
X243947143Y-130499999D02*
X244090000Y-130571428D01*
X244161429Y-130714285D01*
X244161429Y-130928570D01*
X244090000Y-131071428D01*
X243947143Y-131142856D01*
X243161429Y-131142856D01*
X243161429Y-131857142D02*
X244161429Y-131857142D01*
X244018571Y-131857142D02*
X244090000Y-131928570D01*
X244161429Y-132071428D01*
X244161429Y-132285713D01*
X244090000Y-132428570D01*
X243947143Y-132499999D01*
X243161429Y-132499999D01*
X243947143Y-132499999D02*
X244090000Y-132571428D01*
X244161429Y-132714285D01*
X244161429Y-132928570D01*
X244090000Y-133071428D01*
X243947143Y-133142856D01*
X243161429Y-133142856D01*
X243840000Y-93980000D02*
X243840000Y-160020000D01*
X243840000Y-93980000D02*
X243840000Y-93980000D01*
X243840000Y-160020000D02*
X243840000Y-160020000D01*
X243840000Y-160020000D02*
X243253579Y-158893496D01*
X243840000Y-160020000D02*
X244426421Y-158893496D01*
X243840000Y-93980000D02*
X243253579Y-95106504D01*
X243840000Y-93980000D02*
X244426421Y-95106504D01*
D12*
X184090000Y-153730000D02*
X186750000Y-153730000D01*
X184090000Y-153670000D02*
X184090000Y-153730000D01*
X186750000Y-153670000D02*
X186750000Y-153730000D01*
X184090000Y-153670000D02*
X186750000Y-153670000D01*
X184090000Y-152400000D02*
X184090000Y-151070000D01*
X184090000Y-151070000D02*
X185420000Y-151070000D01*
X101540000Y-127060000D02*
X104200000Y-127060000D01*
X101540000Y-124460000D02*
X101540000Y-127060000D01*
X104200000Y-124460000D02*
X104200000Y-127060000D01*
X101540000Y-124460000D02*
X104200000Y-124460000D01*
X101540000Y-123190000D02*
X101540000Y-121860000D01*
X101540000Y-121860000D02*
X102870000Y-121860000D01*
X113240000Y-103370000D02*
X120360000Y-103370000D01*
X113240000Y-109990000D02*
X120360000Y-109990000D01*
X113240000Y-103370000D02*
X113240000Y-106125000D01*
X113240000Y-107235000D02*
X113240000Y-109990000D01*
X120360000Y-103370000D02*
X120360000Y-106125000D01*
X120360000Y-107235000D02*
X120360000Y-109990000D01*
X123400000Y-103370000D02*
X130520000Y-103370000D01*
X123400000Y-109990000D02*
X130520000Y-109990000D01*
X123400000Y-103370000D02*
X123400000Y-106125000D01*
X123400000Y-107235000D02*
X123400000Y-109990000D01*
X130520000Y-103370000D02*
X130520000Y-106125000D01*
X130520000Y-107235000D02*
X130520000Y-109990000D01*
X103080000Y-103370000D02*
X110200000Y-103370000D01*
X103080000Y-109990000D02*
X110200000Y-109990000D01*
X103080000Y-103370000D02*
X103080000Y-106125000D01*
X103080000Y-107235000D02*
X103080000Y-109990000D01*
X110200000Y-103370000D02*
X110200000Y-106125000D01*
X110200000Y-107235000D02*
X110200000Y-109990000D01*
X142200000Y-138340000D02*
X142200000Y-133520000D01*
X144820000Y-138340000D02*
X144820000Y-133520000D01*
X142200000Y-138340000D02*
X142514000Y-138340000D01*
X144506000Y-138340000D02*
X144820000Y-138340000D01*
X142200000Y-133520000D02*
X142514000Y-133520000D01*
X144506000Y-133520000D02*
X144820000Y-133520000D01*
X142200000Y-129450000D02*
X142200000Y-124630000D01*
X144820000Y-129450000D02*
X144820000Y-124630000D01*
X142200000Y-129450000D02*
X142514000Y-129450000D01*
X144506000Y-129450000D02*
X144820000Y-129450000D01*
X142200000Y-124630000D02*
X142514000Y-124630000D01*
X144506000Y-124630000D02*
X144820000Y-124630000D01*
X76250000Y-113140000D02*
X88850000Y-113140000D01*
X88850000Y-113140000D02*
X88850000Y-102790000D01*
X88850000Y-102790000D02*
X87900000Y-102790000D01*
X87900000Y-102790000D02*
X88150000Y-102290000D01*
X88150000Y-102290000D02*
X86250000Y-102290000D01*
X86250000Y-102290000D02*
X86200000Y-102290000D01*
X86200000Y-102290000D02*
X86450000Y-102790000D01*
X86450000Y-102790000D02*
X81050000Y-102790000D01*
X81050000Y-102790000D02*
X81350000Y-102290000D01*
X81350000Y-102290000D02*
X76250000Y-102290000D01*
X76250000Y-102290000D02*
X76250000Y-113140000D01*
X164100000Y-106560000D02*
X162330000Y-106560000D01*
X162330000Y-106560000D02*
X162330000Y-142360000D01*
X162330000Y-142360000D02*
X167870000Y-142360000D01*
X167870000Y-142360000D02*
X167870000Y-106560000D01*
X167870000Y-106560000D02*
X166100000Y-106560000D01*
X166100000Y-106560000D02*
G75*
G02X164100000Y-106560000I-1000000J0D01*
G01*
X77430000Y-125000000D02*
X87670000Y-125000000D01*
X77430000Y-129641000D02*
X87670000Y-129641000D01*
X77430000Y-125000000D02*
X77430000Y-129641000D01*
X87670000Y-125000000D02*
X87670000Y-129641000D01*
X77430000Y-126510000D02*
X87670000Y-126510000D01*
X80700000Y-125000000D02*
X80700000Y-126510000D01*
X84401000Y-125000000D02*
X84401000Y-126510000D01*
X120590000Y-149920000D02*
X123250000Y-149920000D01*
X120590000Y-137160000D02*
X120590000Y-149920000D01*
X123250000Y-137160000D02*
X123250000Y-149920000D01*
X120590000Y-137160000D02*
X123250000Y-137160000D01*
X120590000Y-135890000D02*
X120590000Y-134560000D01*
X120590000Y-134560000D02*
X121920000Y-134560000D01*
X156195000Y-126315000D02*
X156195000Y-132565000D01*
X151145000Y-126315000D02*
X151145000Y-132565000D01*
X151145000Y-126315000D02*
G75*
G02X156195000Y-126315000I2525000J0D01*
G01*
X151145000Y-132565000D02*
G75*
G03X156195000Y-132565000I2525000J0D01*
G01*
X222310000Y-102810000D02*
X219650000Y-102810000D01*
X222310000Y-151130000D02*
X222310000Y-102810000D01*
X219650000Y-151130000D02*
X219650000Y-102810000D01*
X222310000Y-151130000D02*
X219650000Y-151130000D01*
X222310000Y-152400000D02*
X222310000Y-153730000D01*
X222310000Y-153730000D02*
X220980000Y-153730000D01*
X147920000Y-106640000D02*
X147920000Y-109260000D01*
X147920000Y-109260000D02*
X154340000Y-109260000D01*
X154340000Y-109260000D02*
X154340000Y-106640000D01*
X154340000Y-106640000D02*
X147920000Y-106640000D01*
X147030000Y-107950000D02*
X147920000Y-107950000D01*
X155230000Y-107950000D02*
X154340000Y-107950000D01*
X101540000Y-148650000D02*
X104200000Y-148650000D01*
X101540000Y-135890000D02*
X101540000Y-148650000D01*
X104200000Y-135890000D02*
X104200000Y-148650000D01*
X101540000Y-135890000D02*
X104200000Y-135890000D01*
X101540000Y-134620000D02*
X101540000Y-133290000D01*
X101540000Y-133290000D02*
X102870000Y-133290000D01*
D13*
X184205714Y-150236667D02*
X184681905Y-150236667D01*
X184110476Y-150522381D02*
X184443809Y-149522381D01*
X184777143Y-150522381D01*
X185681905Y-150522381D02*
X185348571Y-150046190D01*
X185110476Y-150522381D02*
X185110476Y-149522381D01*
X185491429Y-149522381D01*
X185586667Y-149570000D01*
X185634286Y-149617619D01*
X185681905Y-149712857D01*
X185681905Y-149855714D01*
X185634286Y-149950952D01*
X185586667Y-149998571D01*
X185491429Y-150046190D01*
X185110476Y-150046190D01*
X186634286Y-150522381D02*
X186062857Y-150522381D01*
X186348571Y-150522381D02*
X186348571Y-149522381D01*
X186253333Y-149665238D01*
X186158095Y-149760476D01*
X186062857Y-149808095D01*
X100393810Y-120788571D02*
X100536667Y-120836190D01*
X100584286Y-120883810D01*
X100631905Y-120979048D01*
X100631905Y-121121905D01*
X100584286Y-121217143D01*
X100536667Y-121264762D01*
X100441429Y-121312381D01*
X100060476Y-121312381D01*
X100060476Y-120312381D01*
X100393810Y-120312381D01*
X100489048Y-120360000D01*
X100536667Y-120407619D01*
X100584286Y-120502857D01*
X100584286Y-120598095D01*
X100536667Y-120693333D01*
X100489048Y-120740952D01*
X100393810Y-120788571D01*
X100060476Y-120788571D01*
X101393810Y-120788571D02*
X101536667Y-120836190D01*
X101584286Y-120883810D01*
X101631905Y-120979048D01*
X101631905Y-121121905D01*
X101584286Y-121217143D01*
X101536667Y-121264762D01*
X101441429Y-121312381D01*
X101060476Y-121312381D01*
X101060476Y-120312381D01*
X101393810Y-120312381D01*
X101489048Y-120360000D01*
X101536667Y-120407619D01*
X101584286Y-120502857D01*
X101584286Y-120598095D01*
X101536667Y-120693333D01*
X101489048Y-120740952D01*
X101393810Y-120788571D01*
X101060476Y-120788571D01*
X102060476Y-121312381D02*
X102060476Y-120312381D01*
X102441429Y-120312381D01*
X102536667Y-120360000D01*
X102584286Y-120407619D01*
X102631905Y-120502857D01*
X102631905Y-120645714D01*
X102584286Y-120740952D01*
X102536667Y-120788571D01*
X102441429Y-120836190D01*
X102060476Y-120836190D01*
X102965238Y-120312381D02*
X103203333Y-121312381D01*
X103393810Y-120598095D01*
X103584286Y-121312381D01*
X103822381Y-120312381D01*
X104774762Y-121312381D02*
X104441428Y-120836190D01*
X104203333Y-121312381D02*
X104203333Y-120312381D01*
X104584286Y-120312381D01*
X104679524Y-120360000D01*
X104727143Y-120407619D01*
X104774762Y-120502857D01*
X104774762Y-120645714D01*
X104727143Y-120740952D01*
X104679524Y-120788571D01*
X104584286Y-120836190D01*
X104203333Y-120836190D01*
X105727143Y-121312381D02*
X105155714Y-121312381D01*
X105441428Y-121312381D02*
X105441428Y-120312381D01*
X105346190Y-120455238D01*
X105250952Y-120550476D01*
X105155714Y-120598095D01*
X116633334Y-102477143D02*
X116585715Y-102524762D01*
X116442858Y-102572381D01*
X116347620Y-102572381D01*
X116204762Y-102524762D01*
X116109524Y-102429524D01*
X116061905Y-102334286D01*
X116014286Y-102143810D01*
X116014286Y-102000952D01*
X116061905Y-101810476D01*
X116109524Y-101715238D01*
X116204762Y-101620000D01*
X116347620Y-101572381D01*
X116442858Y-101572381D01*
X116585715Y-101620000D01*
X116633334Y-101667619D01*
X117585715Y-102572381D02*
X117014286Y-102572381D01*
X117300000Y-102572381D02*
X117300000Y-101572381D01*
X117204762Y-101715238D01*
X117109524Y-101810476D01*
X117014286Y-101858095D01*
X126793334Y-102477143D02*
X126745715Y-102524762D01*
X126602858Y-102572381D01*
X126507620Y-102572381D01*
X126364762Y-102524762D01*
X126269524Y-102429524D01*
X126221905Y-102334286D01*
X126174286Y-102143810D01*
X126174286Y-102000952D01*
X126221905Y-101810476D01*
X126269524Y-101715238D01*
X126364762Y-101620000D01*
X126507620Y-101572381D01*
X126602858Y-101572381D01*
X126745715Y-101620000D01*
X126793334Y-101667619D01*
X127174286Y-101667619D02*
X127221905Y-101620000D01*
X127317143Y-101572381D01*
X127555239Y-101572381D01*
X127650477Y-101620000D01*
X127698096Y-101667619D01*
X127745715Y-101762857D01*
X127745715Y-101858095D01*
X127698096Y-102000952D01*
X127126667Y-102572381D01*
X127745715Y-102572381D01*
X106473334Y-102477143D02*
X106425715Y-102524762D01*
X106282858Y-102572381D01*
X106187620Y-102572381D01*
X106044762Y-102524762D01*
X105949524Y-102429524D01*
X105901905Y-102334286D01*
X105854286Y-102143810D01*
X105854286Y-102000952D01*
X105901905Y-101810476D01*
X105949524Y-101715238D01*
X106044762Y-101620000D01*
X106187620Y-101572381D01*
X106282858Y-101572381D01*
X106425715Y-101620000D01*
X106473334Y-101667619D01*
X106806667Y-101572381D02*
X107425715Y-101572381D01*
X107092381Y-101953333D01*
X107235239Y-101953333D01*
X107330477Y-102000952D01*
X107378096Y-102048571D01*
X107425715Y-102143810D01*
X107425715Y-102381905D01*
X107378096Y-102477143D01*
X107330477Y-102524762D01*
X107235239Y-102572381D01*
X106949524Y-102572381D01*
X106854286Y-102524762D01*
X106806667Y-102477143D01*
X141307143Y-136096666D02*
X141354762Y-136144285D01*
X141402381Y-136287142D01*
X141402381Y-136382380D01*
X141354762Y-136525238D01*
X141259524Y-136620476D01*
X141164286Y-136668095D01*
X140973810Y-136715714D01*
X140830952Y-136715714D01*
X140640476Y-136668095D01*
X140545238Y-136620476D01*
X140450000Y-136525238D01*
X140402381Y-136382380D01*
X140402381Y-136287142D01*
X140450000Y-136144285D01*
X140497619Y-136096666D01*
X140735714Y-135239523D02*
X141402381Y-135239523D01*
X140354762Y-135477619D02*
X141069048Y-135715714D01*
X141069048Y-135096666D01*
X141307143Y-127206666D02*
X141354762Y-127254285D01*
X141402381Y-127397142D01*
X141402381Y-127492380D01*
X141354762Y-127635238D01*
X141259524Y-127730476D01*
X141164286Y-127778095D01*
X140973810Y-127825714D01*
X140830952Y-127825714D01*
X140640476Y-127778095D01*
X140545238Y-127730476D01*
X140450000Y-127635238D01*
X140402381Y-127492380D01*
X140402381Y-127397142D01*
X140450000Y-127254285D01*
X140497619Y-127206666D01*
X140402381Y-126301904D02*
X140402381Y-126778095D01*
X140878571Y-126825714D01*
X140830952Y-126778095D01*
X140783333Y-126682857D01*
X140783333Y-126444761D01*
X140830952Y-126349523D01*
X140878571Y-126301904D01*
X140973810Y-126254285D01*
X141211905Y-126254285D01*
X141307143Y-126301904D01*
X141354762Y-126349523D01*
X141402381Y-126444761D01*
X141402381Y-126682857D01*
X141354762Y-126778095D01*
X141307143Y-126825714D01*
X75488571Y-115529048D02*
X75488571Y-115195714D01*
X76012381Y-115052857D02*
X76012381Y-115529048D01*
X75012381Y-115529048D01*
X75012381Y-115052857D01*
X75012381Y-114719524D02*
X76012381Y-114052857D01*
X75012381Y-114052857D02*
X76012381Y-114719524D01*
X75012381Y-113814762D02*
X75012381Y-113243333D01*
X76012381Y-113529048D02*
X75012381Y-113529048D01*
X76012381Y-112910000D02*
X75012381Y-112910000D01*
X75012381Y-112529047D01*
X75060000Y-112433809D01*
X75107619Y-112386190D01*
X75202857Y-112338571D01*
X75345714Y-112338571D01*
X75440952Y-112386190D01*
X75488571Y-112433809D01*
X75536190Y-112529047D01*
X75536190Y-112910000D01*
X75012381Y-112005238D02*
X76012381Y-111767143D01*
X75298095Y-111576666D01*
X76012381Y-111386190D01*
X75012381Y-111148095D01*
X76012381Y-110195714D02*
X75536190Y-110529048D01*
X76012381Y-110767143D02*
X75012381Y-110767143D01*
X75012381Y-110386190D01*
X75060000Y-110290952D01*
X75107619Y-110243333D01*
X75202857Y-110195714D01*
X75345714Y-110195714D01*
X75440952Y-110243333D01*
X75488571Y-110290952D01*
X75536190Y-110386190D01*
X75536190Y-110767143D01*
X76012381Y-109243333D02*
X76012381Y-109814762D01*
X76012381Y-109529048D02*
X75012381Y-109529048D01*
X75155238Y-109624286D01*
X75250476Y-109719524D01*
X75298095Y-109814762D01*
X164123810Y-106012381D02*
X164123810Y-105012381D01*
X165171429Y-105917143D02*
X165123810Y-105964762D01*
X164980953Y-106012381D01*
X164885715Y-106012381D01*
X164742857Y-105964762D01*
X164647619Y-105869524D01*
X164600000Y-105774286D01*
X164552381Y-105583810D01*
X164552381Y-105440952D01*
X164600000Y-105250476D01*
X164647619Y-105155238D01*
X164742857Y-105060000D01*
X164885715Y-105012381D01*
X164980953Y-105012381D01*
X165123810Y-105060000D01*
X165171429Y-105107619D01*
X166123810Y-106012381D02*
X165552381Y-106012381D01*
X165838095Y-106012381D02*
X165838095Y-105012381D01*
X165742857Y-105155238D01*
X165647619Y-105250476D01*
X165552381Y-105298095D01*
X81573810Y-124452381D02*
X81573810Y-123452381D01*
X82621429Y-124357143D02*
X82573810Y-124404762D01*
X82430953Y-124452381D01*
X82335715Y-124452381D01*
X82192857Y-124404762D01*
X82097619Y-124309524D01*
X82050000Y-124214286D01*
X82002381Y-124023810D01*
X82002381Y-123880952D01*
X82050000Y-123690476D01*
X82097619Y-123595238D01*
X82192857Y-123500000D01*
X82335715Y-123452381D01*
X82430953Y-123452381D01*
X82573810Y-123500000D01*
X82621429Y-123547619D01*
X83002381Y-123547619D02*
X83050000Y-123500000D01*
X83145238Y-123452381D01*
X83383334Y-123452381D01*
X83478572Y-123500000D01*
X83526191Y-123547619D01*
X83573810Y-123642857D01*
X83573810Y-123738095D01*
X83526191Y-123880952D01*
X82954762Y-124452381D01*
X83573810Y-124452381D01*
X120443810Y-134012381D02*
X120443810Y-133012381D01*
X121491429Y-133917143D02*
X121443810Y-133964762D01*
X121300953Y-134012381D01*
X121205715Y-134012381D01*
X121062857Y-133964762D01*
X120967619Y-133869524D01*
X120920000Y-133774286D01*
X120872381Y-133583810D01*
X120872381Y-133440952D01*
X120920000Y-133250476D01*
X120967619Y-133155238D01*
X121062857Y-133060000D01*
X121205715Y-133012381D01*
X121300953Y-133012381D01*
X121443810Y-133060000D01*
X121491429Y-133107619D01*
X121920000Y-134012381D02*
X121920000Y-133012381D01*
X122300953Y-133012381D01*
X122396191Y-133060000D01*
X122443810Y-133107619D01*
X122491429Y-133202857D01*
X122491429Y-133345714D01*
X122443810Y-133440952D01*
X122396191Y-133488571D01*
X122300953Y-133536190D01*
X121920000Y-133536190D01*
X123443810Y-134012381D02*
X122872381Y-134012381D01*
X123158095Y-134012381D02*
X123158095Y-133012381D01*
X123062857Y-133155238D01*
X122967619Y-133250476D01*
X122872381Y-133298095D01*
X156647381Y-131225714D02*
X156647381Y-131035237D01*
X156695000Y-130939999D01*
X156790238Y-130844761D01*
X156980714Y-130797142D01*
X157314048Y-130797142D01*
X157504524Y-130844761D01*
X157599762Y-130939999D01*
X157647381Y-131035237D01*
X157647381Y-131225714D01*
X157599762Y-131320952D01*
X157504524Y-131416190D01*
X157314048Y-131463809D01*
X156980714Y-131463809D01*
X156790238Y-131416190D01*
X156695000Y-131320952D01*
X156647381Y-131225714D01*
X157599762Y-130416190D02*
X157647381Y-130273333D01*
X157647381Y-130035237D01*
X157599762Y-129939999D01*
X157552143Y-129892380D01*
X157456905Y-129844761D01*
X157361667Y-129844761D01*
X157266429Y-129892380D01*
X157218810Y-129939999D01*
X157171190Y-130035237D01*
X157123571Y-130225714D01*
X157075952Y-130320952D01*
X157028333Y-130368571D01*
X156933095Y-130416190D01*
X156837857Y-130416190D01*
X156742619Y-130368571D01*
X156695000Y-130320952D01*
X156647381Y-130225714D01*
X156647381Y-129987618D01*
X156695000Y-129844761D01*
X157552143Y-128844761D02*
X157599762Y-128892380D01*
X157647381Y-129035237D01*
X157647381Y-129130475D01*
X157599762Y-129273333D01*
X157504524Y-129368571D01*
X157409286Y-129416190D01*
X157218810Y-129463809D01*
X157075952Y-129463809D01*
X156885476Y-129416190D01*
X156790238Y-129368571D01*
X156695000Y-129273333D01*
X156647381Y-129130475D01*
X156647381Y-129035237D01*
X156695000Y-128892380D01*
X156742619Y-128844761D01*
X157647381Y-128416190D02*
X156647381Y-128416190D01*
X157647381Y-127416190D02*
X157647381Y-127987619D01*
X157647381Y-127701905D02*
X156647381Y-127701905D01*
X156790238Y-127797143D01*
X156885476Y-127892381D01*
X156933095Y-127987619D01*
X219003810Y-155182381D02*
X219003810Y-154182381D01*
X219384763Y-154182381D01*
X219480001Y-154230000D01*
X219527620Y-154277619D01*
X219575239Y-154372857D01*
X219575239Y-154515714D01*
X219527620Y-154610952D01*
X219480001Y-154658571D01*
X219384763Y-154706190D01*
X219003810Y-154706190D01*
X220003810Y-155182381D02*
X220003810Y-154182381D01*
X220480000Y-155182381D02*
X220480000Y-154182381D01*
X221051429Y-155182381D01*
X221051429Y-154182381D01*
X221480000Y-155134762D02*
X221622857Y-155182381D01*
X221860953Y-155182381D01*
X221956191Y-155134762D01*
X222003810Y-155087143D01*
X222051429Y-154991905D01*
X222051429Y-154896667D01*
X222003810Y-154801429D01*
X221956191Y-154753810D01*
X221860953Y-154706190D01*
X221670476Y-154658571D01*
X221575238Y-154610952D01*
X221527619Y-154563333D01*
X221480000Y-154468095D01*
X221480000Y-154372857D01*
X221527619Y-154277619D01*
X221575238Y-154230000D01*
X221670476Y-154182381D01*
X221908572Y-154182381D01*
X222051429Y-154230000D01*
X223003810Y-155182381D02*
X222432381Y-155182381D01*
X222718095Y-155182381D02*
X222718095Y-154182381D01*
X222622857Y-154325238D01*
X222527619Y-154420476D01*
X222432381Y-154468095D01*
X150963334Y-106092381D02*
X150630000Y-105616190D01*
X150391905Y-106092381D02*
X150391905Y-105092381D01*
X150772858Y-105092381D01*
X150868096Y-105140000D01*
X150915715Y-105187619D01*
X150963334Y-105282857D01*
X150963334Y-105425714D01*
X150915715Y-105520952D01*
X150868096Y-105568571D01*
X150772858Y-105616190D01*
X150391905Y-105616190D01*
X151915715Y-106092381D02*
X151344286Y-106092381D01*
X151630000Y-106092381D02*
X151630000Y-105092381D01*
X151534762Y-105235238D01*
X151439524Y-105330476D01*
X151344286Y-105378095D01*
X100084286Y-132694762D02*
X100227143Y-132742381D01*
X100465239Y-132742381D01*
X100560477Y-132694762D01*
X100608096Y-132647143D01*
X100655715Y-132551905D01*
X100655715Y-132456667D01*
X100608096Y-132361429D01*
X100560477Y-132313810D01*
X100465239Y-132266190D01*
X100274762Y-132218571D01*
X100179524Y-132170952D01*
X100131905Y-132123333D01*
X100084286Y-132028095D01*
X100084286Y-131932857D01*
X100131905Y-131837619D01*
X100179524Y-131790000D01*
X100274762Y-131742381D01*
X100512858Y-131742381D01*
X100655715Y-131790000D01*
X101084286Y-132218571D02*
X101417620Y-132218571D01*
X101560477Y-132742381D02*
X101084286Y-132742381D01*
X101084286Y-131742381D01*
X101560477Y-131742381D01*
X102560477Y-132742381D02*
X102227143Y-132266190D01*
X101989048Y-132742381D02*
X101989048Y-131742381D01*
X102370001Y-131742381D01*
X102465239Y-131790000D01*
X102512858Y-131837619D01*
X102560477Y-131932857D01*
X102560477Y-132075714D01*
X102512858Y-132170952D01*
X102465239Y-132218571D01*
X102370001Y-132266190D01*
X101989048Y-132266190D01*
X102989048Y-132742381D02*
X102989048Y-131742381D01*
X103417619Y-132456667D02*
X103893810Y-132456667D01*
X103322381Y-132742381D02*
X103655714Y-131742381D01*
X103989048Y-132742381D01*
X104798572Y-132742381D02*
X104322381Y-132742381D01*
X104322381Y-131742381D01*
X105655715Y-132742381D02*
X105084286Y-132742381D01*
X105370000Y-132742381D02*
X105370000Y-131742381D01*
X105274762Y-131885238D01*
X105179524Y-131980476D01*
X105084286Y-132028095D01*
M02*
